<svg xmlns="http://www.w3.org/2000/svg" xmlns:xlink="http://www.w3.org/1999/xlink" viewBox="0 0 100 100"><path fill="#c7ede6" d="M88.724,55.803c0.3-0.616,0.566-1.264,0.796-1.943c2.633-7.77-1.349-17.078-9.733-19.325c-0.906-11.384-8.906-19.193-17.941-20.526c-10.341-1.525-19.814,5.044-22.966,15.485c-3.799-1.346-7.501-1.182-10.99,0.857c-1.583,0.732-3.031,1.812-4.33,3.233c-1.907,2.086-3.147,4.719-3.652,7.495c-0.748,0.118-1.483,0.236-2.176,0.484c-4.04,1.449-6.589,4.431-7.288,8.923c-0.435,2.797,0.443,5.587,0.933,6.714c1.935,4.455,6.422,6.98,10.981,6.312c0.227-0.033,0.557,0.069,0.752,0.233c0.241,7.12,3.698,13.417,8.884,17.014c8.321,5.772,19.027,3.994,25.781-3.921c2.894,2.96,6.338,4.398,10.384,3.876c4.023-0.519,7.147-2.739,9.426-6.349c1.053,0.283,2.051,0.691,3.083,0.804c4.042,0.442,7.324-1.165,9.732-4.8c0.922-1.391,1.794-3.194,1.793-6.354C92.194,60.76,90.901,57.793,88.724,55.803z"/><path fill="#fff" d="M18.389 47.839H8.359c-.276 0-.5-.224-.5-.5s.224-.5.5-.5h10.03c.276 0 .5.224.5.5S18.665 47.839 18.389 47.839zM21.27 47.839h-1.446c-.276 0-.5-.224-.5-.5s.224-.5.5-.5h1.446c.276 0 .5.224.5.5S21.547 47.839 21.27 47.839zM25.325 47.839h-2.546c-.276 0-.5-.224-.5-.5s.224-.5.5-.5h2.546c.276 0 .5.224.5.5S25.601 47.839 25.325 47.839zM25.325 49.704h-9.616c-.276 0-.5-.224-.5-.5s.224-.5.5-.5h9.616c.276 0 .5.224.5.5S25.601 49.704 25.325 49.704zM13.977 49.704h-.58c-.276 0-.5-.224-.5-.5s.224-.5.5-.5h.58c.276 0 .5.224.5.5S14.253 49.704 13.977 49.704zM11.6 49.704h-1.456c-.276 0-.5-.224-.5-.5s.224-.5.5-.5H11.6c.276 0 .5.224.5.5S11.876 49.704 11.6 49.704zM20.736 45.974h-5.027c-.276 0-.5-.224-.5-.5s.224-.5.5-.5h5.027c.276 0 .5.224.5.5S21.012 45.974 20.736 45.974zM20.736 44.109h-1.257c-.276 0-.5-.224-.5-.5s.224-.5.5-.5h1.257c.276 0 .5.224.5.5S21.012 44.109 20.736 44.109zM17.467 51.569h-1.759c-.276 0-.5-.224-.5-.5s.224-.5.5-.5h1.759c.276 0 .5.224.5.5S17.744 51.569 17.467 51.569zM74.415 25.518h-10.03c-.276 0-.5-.224-.5-.5s.224-.5.5-.5h10.03c.276 0 .5.224.5.5S74.691 25.518 74.415 25.518zM77.296 25.518H75.85c-.276 0-.5-.224-.5-.5s.224-.5.5-.5h1.446c.276 0 .5.224.5.5S77.573 25.518 77.296 25.518zM81.35 25.518h-2.545c-.276 0-.5-.224-.5-.5s.224-.5.5-.5h2.545c.276 0 .5.224.5.5S81.627 25.518 81.35 25.518zM81.351 27.383h-9.617c-.276 0-.5-.224-.5-.5s.224-.5.5-.5h9.617c.276 0 .5.224.5.5S81.627 27.383 81.351 27.383zM70.003 27.383h-.58c-.276 0-.5-.224-.5-.5s.224-.5.5-.5h.58c.276 0 .5.224.5.5S70.279 27.383 70.003 27.383zM67.626 27.383H66.17c-.276 0-.5-.224-.5-.5s.224-.5.5-.5h1.456c.276 0 .5.224.5.5S67.902 27.383 67.626 27.383zM76.762 23.653h-5.028c-.276 0-.5-.224-.5-.5s.224-.5.5-.5h5.028c.276 0 .5.224.5.5S77.038 23.653 76.762 23.653zM76.762 21.789h-1.257c-.276 0-.5-.224-.5-.5s.224-.5.5-.5h1.257c.276 0 .5.224.5.5S77.038 21.789 76.762 21.789zM73.493 29.248h-1.759c-.276 0-.5-.224-.5-.5s.224-.5.5-.5h1.759c.276 0 .5.224.5.5S73.769 29.248 73.493 29.248z"/><path fill="#fdfcef" d="M74.986,48.672c0,0,10.616,0,10.681,0c2.452,0,4.439-1.987,4.439-4.439c0-2.139-1.513-3.924-3.527-4.344c0.023-0.187,0.039-0.377,0.039-0.57c0-2.539-2.058-4.598-4.597-4.598c-1.499,0-2.827,0.721-3.666,1.831c-0.215-2.826-2.739-5.007-5.693-4.646c-2.16,0.264-3.947,1.934-4.344,4.073c-0.127,0.686-0.114,1.352,0.013,1.977c-0.579-0.624-1.403-1.016-2.322-1.016c-1.68,0-3.052,1.308-3.16,2.961c-0.763-0.169-1.593-0.158-2.467,0.17c-1.671,0.627-2.861,2.2-2.93,3.983c-0.099,2.533,1.925,4.617,4.435,4.617c0.191,0,0.861,0,1.015,0h9.218"/><path fill="#472b29" d="M85.666,49.173H74.986c-0.276,0-0.5-0.224-0.5-0.5s0.224-0.5,0.5-0.5h10.681c2.172,0,3.939-1.768,3.939-3.939c0-1.854-1.316-3.477-3.129-3.855c-0.254-0.053-0.425-0.292-0.394-0.55c0.021-0.168,0.035-0.337,0.035-0.51c0-2.26-1.838-4.098-4.098-4.098c-1.292,0-2.483,0.595-3.267,1.633c-0.125,0.165-0.341,0.237-0.54,0.178c-0.2-0.059-0.342-0.234-0.358-0.441c-0.094-1.238-0.701-2.401-1.664-3.19c-0.974-0.797-2.205-1.152-3.471-0.997c-1.947,0.238-3.556,1.747-3.913,3.669c-0.112,0.601-0.108,1.201,0.011,1.786c0.045,0.22-0.062,0.442-0.261,0.544c-0.198,0.105-0.442,0.06-0.595-0.104c-0.513-0.552-1.207-0.856-1.955-0.856c-1.4,0-2.569,1.096-2.661,2.494c-0.01,0.146-0.083,0.279-0.199,0.367c-0.117,0.088-0.268,0.119-0.408,0.088c-0.754-0.167-1.467-0.118-2.183,0.15c-1.498,0.562-2.545,1.983-2.606,3.535c-0.042,1.083,0.347,2.109,1.097,2.889c0.75,0.779,1.758,1.209,2.839,1.209h10.233c0.276,0,0.5,0.224,0.5,0.5s-0.224,0.5-0.5,0.5H61.887c-1.356,0-2.62-0.538-3.561-1.516c-0.939-0.978-1.428-2.264-1.375-3.621c0.076-1.949,1.384-3.73,3.254-4.432c0.721-0.271,1.466-0.362,2.221-0.28c0.362-1.654,1.842-2.884,3.582-2.884c0.603,0,1.194,0.151,1.72,0.432c0.004-0.327,0.036-0.655,0.097-0.983c0.436-2.346,2.399-4.188,4.775-4.479c1.538-0.192,3.04,0.243,4.226,1.216c0.899,0.737,1.543,1.742,1.847,2.851c0.919-0.808,2.094-1.256,3.347-1.256c2.811,0,5.098,2.287,5.098,5.098c0,0.064-0.001,0.128-0.004,0.192c2.048,0.628,3.492,2.547,3.492,4.723C90.605,46.957,88.39,49.173,85.666,49.173z"/><path fill="#fdfcef" d="M72.413,38.893c-1.642-0.108-3.055,1.026-3.157,2.533c-0.013,0.187-0.004,0.371,0.023,0.55c-0.317-0.358-0.786-0.6-1.324-0.636c-0.985-0.065-1.836,0.586-1.959,1.471c-0.179-0.049-0.366-0.082-0.56-0.095c-1.437-0.094-2.674,0.898-2.762,2.216"/><path fill="#472b29" d="M62.675,45.183c-0.006,0-0.012,0-0.017-0.001c-0.138-0.009-0.242-0.128-0.233-0.266c0.098-1.453,1.47-2.554,3.028-2.449c0.117,0.007,0.236,0.022,0.354,0.044c0.259-0.877,1.163-1.497,2.166-1.42c0.371,0.023,0.728,0.141,1.034,0.331c0-0.004,0.001-0.009,0.001-0.013c0.111-1.642,1.652-2.901,3.422-2.766c0.138,0.009,0.242,0.128,0.233,0.266c-0.009,0.137-0.135,0.25-0.266,0.232c-1.511-0.094-2.799,0.934-2.891,2.301c-0.011,0.164-0.004,0.331,0.021,0.495c0.017,0.109-0.041,0.218-0.141,0.265c-0.099,0.047-0.219,0.023-0.293-0.061c-0.285-0.322-0.706-0.523-1.153-0.553c-0.85-0.05-1.59,0.497-1.695,1.256c-0.01,0.071-0.05,0.135-0.11,0.175c-0.061,0.04-0.133,0.052-0.204,0.032c-0.17-0.046-0.342-0.075-0.51-0.087c-1.296-0.061-2.417,0.806-2.497,1.984C62.915,45.082,62.805,45.183,62.675,45.183z"/><path fill="#fdfcef" d="M87.464,40.409c-1.543-0.727-3.327-0.213-3.985,1.15c-0.082,0.169-0.142,0.344-0.182,0.521"/><path fill="#472b29" d="M83.296,42.33c-0.018,0-0.037-0.002-0.056-0.006c-0.135-0.031-0.219-0.165-0.188-0.3c0.046-0.2,0.114-0.394,0.201-0.574c0.717-1.483,2.655-2.052,4.317-1.268c0.125,0.06,0.179,0.208,0.12,0.333c-0.059,0.126-0.209,0.177-0.333,0.12c-1.416-0.669-3.056-0.205-3.654,1.032c-0.071,0.147-0.126,0.305-0.164,0.468C83.513,42.252,83.41,42.33,83.296,42.33z"/><path fill="#f4989e" d="M65.281,70.1H39.559c-3.766,0-6.847-3.081-6.847-6.847V37.531c0-3.766,3.081-6.847,6.847-6.847h25.722c3.766,0,6.847,3.081,6.847,6.847v25.722C72.128,67.019,69.047,70.1,65.281,70.1z"/><path fill="#472b29" d="M65.281,70.8H39.559c-4.162,0-7.548-3.386-7.548-7.547V37.531c0-4.161,3.386-7.547,7.548-7.547h25.722c4.162,0,7.547,3.386,7.547,7.547v25.723C72.828,67.415,69.443,70.8,65.281,70.8z M39.559,31.384c-3.39,0-6.147,2.757-6.147,6.146v25.723c0,3.39,2.758,6.146,6.147,6.146h25.722c3.39,0,6.147-2.757,6.147-6.146V37.531c0-3.39-2.757-6.146-6.147-6.146H39.559z"/><path fill="#fdfcee" d="M63.764,67.285H41.076c-3.052,0-5.549-2.497-5.549-5.549V39.048c0-3.052,2.497-5.549,5.549-5.549h22.688c3.052,0,5.549,2.497,5.549,5.549v22.688C69.313,64.788,66.816,67.285,63.764,67.285z"/><path fill="#472b29" d="M64.179,67.634H40.661c-3.024,0-5.484-2.46-5.484-5.483V38.633c0-3.023,2.46-5.483,5.484-5.483h22.395c0.193,0,0.35,0.156,0.35,0.35s-0.157,0.35-0.35,0.35H40.661c-2.638,0-4.784,2.146-4.784,4.784v23.518c0,2.638,2.146,4.784,4.784,4.784h23.518c2.638,0,4.784-2.146,4.784-4.784V49.14c0-0.193,0.157-0.35,0.35-0.35s0.35,0.156,0.35,0.35v13.011C69.663,65.174,67.202,67.634,64.179,67.634z"/><path fill="#472b29" d="M69.313 47.613c-.193 0-.35-.156-.35-.35v-2.502c0-.193.157-.35.35-.35s.35.156.35.35v2.502C69.663 47.457 69.506 47.613 69.313 47.613zM69.313 43.859c-.193 0-.35-.156-.35-.35v-1.251c0-.193.157-.35.35-.35s.35.156.35.35v1.251C69.663 43.703 69.506 43.859 69.313 43.859z"/><path fill="#ee3e54" d="M48.146,48.434v3.138c0,0,3.04-0.006,4.282-0.006c-0.673,2.031-1.713,3.138-4.282,3.138c-2.6,0-4.625-2.104-4.625-4.704c0-2.6,2.031-4.704,4.625-4.704c1.376,0,2.263,0.483,3.077,1.156c0.655-0.655,0.599-0.746,2.257-2.312c-1.407-1.278-3.279-2.061-5.328-2.061c-4.374,0-7.922,3.548-7.922,7.922s3.548,7.922,7.922,7.922c6.539,0,8.136-5.695,7.604-9.488C54.208,48.434,48.146,48.434,48.146,48.434z M62.423,48.587V45.84h-1.957v2.747h-2.82v1.957h2.82v2.82h1.957v-2.82h2.747v-1.957H62.423z"/><path fill="#472b29" d="M48.152,58.346c-4.602,0-8.346-3.744-8.346-8.347c0-4.602,3.744-8.346,8.346-8.346c2.08,0,4.074,0.771,5.614,2.172c0.087,0.08,0.138,0.192,0.139,0.311c0.001,0.118-0.047,0.231-0.133,0.312c-1.076,1.017-1.413,1.395-1.711,1.729c-0.16,0.18-0.306,0.344-0.538,0.575c-0.155,0.153-0.402,0.166-0.571,0.026c-0.665-0.55-1.465-1.059-2.806-1.059c-2.355,0-4.2,1.88-4.2,4.279s1.845,4.279,4.2,4.279c2.189,0,3.083-0.83,3.674-2.287l-3.673,0.005c0,0,0,0,0,0c-0.113,0-0.221-0.045-0.301-0.124c-0.08-0.08-0.125-0.188-0.125-0.301v-3.138c0-0.234,0.19-0.425,0.425-0.425h7.609c0.212,0,0.392,0.156,0.421,0.366c0.305,2.174-0.047,5.277-1.952,7.469C52.78,57.505,50.737,58.346,48.152,58.346z M48.152,42.504c-4.133,0-7.497,3.363-7.497,7.496c0,4.134,3.363,7.497,7.497,7.497c2.329,0,4.156-0.744,5.431-2.21c1.615-1.857,1.989-4.469,1.795-6.428h-6.807v2.287l3.857-0.005c0.136,0,0.265,0.065,0.345,0.176c0.08,0.11,0.102,0.253,0.059,0.383c-0.807,2.436-2.164,3.429-4.685,3.429c-2.832,0-5.049-2.253-5.049-5.129s2.218-5.129,5.049-5.129c1.401,0,2.328,0.478,3.038,1.009c0.086-0.093,0.163-0.178,0.242-0.268c0.275-0.308,0.582-0.652,1.419-1.455C51.516,43.088,49.867,42.504,48.152,42.504z M62.423,53.789h-1.958c-0.235,0-0.425-0.19-0.425-0.425v-2.395h-2.395c-0.235,0-0.425-0.19-0.425-0.425v-1.958c0-0.234,0.19-0.425,0.425-0.425h2.395V45.84c0-0.234,0.19-0.425,0.425-0.425h1.958c0.235,0,0.425,0.19,0.425,0.425v2.321h2.322c0.235,0,0.425,0.19,0.425,0.425v1.958c0,0.234-0.19,0.425-0.425,0.425h-2.322v2.395C62.848,53.598,62.658,53.789,62.423,53.789z M60.89,52.939h1.108v-2.395c0-0.234,0.19-0.425,0.425-0.425h2.322v-1.108h-2.322c-0.235,0-0.425-0.19-0.425-0.425v-2.321H60.89v2.321c0,0.234-0.19,0.425-0.425,0.425h-2.395v1.108h2.395c0.235,0,0.425,0.19,0.425,0.425V52.939z"/><path fill="#fdfcef" d="M42.147,72.613c1.71,0,3.194,0,3.215,0c1.916,0,3.469-1.52,3.469-3.396c0-1.636-1.182-3.001-2.756-3.323c0.018-0.143,0.031-0.288,0.031-0.436c0-1.942-1.609-3.517-3.593-3.517c-1.172,0-2.209,0.551-2.865,1.401c-0.168-2.162-2.141-3.83-4.45-3.554c-1.688,0.202-3.084,1.479-3.395,3.116c-0.1,0.525-0.089,1.034,0.01,1.512c-0.453-0.477-1.097-0.777-1.814-0.777c-1.313,0-2.385,1.001-2.47,2.265c-0.596-0.129-1.245-0.121-1.928,0.13c-1.306,0.48-2.236,1.683-2.29,3.047c-0.077,1.937,1.504,3.532,3.467,3.532c0.149,0,0.673,0,0.794,0h7.204 M36.265,72.613h0.327"/><path fill="#472b29" d="M45.362,73.113h-3.215c-0.276,0-0.5-0.224-0.5-0.5s0.224-0.5,0.5-0.5h3.215c1.637,0,2.969-1.299,2.969-2.896c0-1.362-0.991-2.554-2.356-2.833c-0.256-0.053-0.429-0.294-0.396-0.553c0.016-0.122,0.027-0.247,0.027-0.373c0-1.664-1.388-3.018-3.093-3.018c-0.978,0-1.877,0.439-2.469,1.207c-0.127,0.164-0.341,0.23-0.539,0.174c-0.198-0.06-0.339-0.234-0.355-0.44c-0.071-0.913-0.507-1.741-1.227-2.333c-0.742-0.609-1.689-0.876-2.665-0.764c-1.475,0.177-2.694,1.292-2.963,2.713c-0.084,0.442-0.081,0.886,0.009,1.317c0.045,0.219-0.06,0.441-0.258,0.545c-0.199,0.103-0.441,0.063-0.595-0.1c-0.38-0.4-0.896-0.621-1.452-0.621c-1.038,0-1.903,0.79-1.971,1.798c-0.01,0.146-0.082,0.279-0.198,0.366c-0.116,0.087-0.266,0.121-0.406,0.089c-0.571-0.122-1.11-0.087-1.65,0.112c-1.128,0.414-1.917,1.458-1.963,2.598c-0.031,0.781,0.253,1.525,0.8,2.095c0.568,0.591,1.337,0.916,2.167,0.916h7.998c0.276,0,0.5,0.224,0.5,0.5s-0.224,0.5-0.5,0.5h-7.998c-1.089,0-2.142-0.446-2.889-1.224c-0.737-0.767-1.12-1.771-1.078-2.827c0.062-1.539,1.114-2.944,2.618-3.497c0.548-0.201,1.112-0.279,1.688-0.229c0.332-1.268,1.507-2.197,2.882-2.197c0.431,0,0.854,0.094,1.241,0.269c0.01-0.199,0.035-0.398,0.072-0.597c0.35-1.844,1.924-3.291,3.827-3.519c1.248-0.156,2.463,0.2,3.418,0.983c0.668,0.548,1.147,1.254,1.399,2.047c0.718-0.568,1.61-0.882,2.558-0.882c2.257,0,4.093,1.803,4.093,4.018c0,0.02,0,0.039,0,0.059c1.603,0.521,2.726,2.013,2.726,3.7C49.331,71.366,47.55,73.113,45.362,73.113z M36.592,73.113h-0.327c-0.276,0-0.5-0.224-0.5-0.5s0.224-0.5,0.5-0.5h0.327c0.276,0,0.5,0.224,0.5,0.5S36.868,73.113,36.592,73.113z"/><path fill="#472b29" d="M43.811 67.821c-.018 0-.036-.002-.055-.006-.135-.03-.219-.164-.189-.299.034-.152.087-.301.156-.441.553-1.122 2.083-1.538 3.41-.924.125.058.18.206.122.331-.059.126-.206.179-.332.122-1.082-.497-2.316-.188-2.751.692-.052.104-.091.216-.116.329C44.029 67.742 43.926 67.821 43.811 67.821zM39.126 73.113h-1.005c-.276 0-.5-.224-.5-.5s.224-.5.5-.5h1.005c.276 0 .5.224.5.5S39.403 73.113 39.126 73.113z"/></svg>