<svg xmlns="http://www.w3.org/2000/svg" xmlns:xlink="http://www.w3.org/1999/xlink" viewBox="0 0 100 100"><path fill="#c7ede6" d="M88.704,55.677c0.3-0.616,0.566-1.264,0.796-1.943c2.633-7.77-1.349-17.078-9.733-19.325C78.86,23.026,70.86,15.216,61.826,13.884c-10.341-1.525-19.814,5.044-22.966,15.485c-3.799-1.346-7.501-1.182-10.99,0.857c-1.583,0.732-3.031,1.812-4.33,3.233c-1.907,2.086-3.147,4.719-3.652,7.495c-0.748,0.118-1.483,0.236-2.176,0.484c-4.04,1.449-6.589,4.431-7.288,8.923c-0.435,2.797,0.443,5.587,0.933,6.714c1.935,4.455,6.422,6.98,10.981,6.312c0.227-0.033,0.557,0.069,0.752,0.233c0.241,7.12,3.698,13.417,8.884,17.014c8.321,5.772,19.027,3.994,25.781-3.921c2.894,2.96,6.338,4.398,10.384,3.876c4.023-0.519,7.147-2.739,9.426-6.349c1.053,0.283,2.051,0.691,3.083,0.804c4.042,0.442,7.324-1.165,9.732-4.8c0.922-1.391,1.793-3.194,1.793-6.354C92.174,60.634,90.88,57.667,88.704,55.677z"/><path fill="#fff" d="M18.369 47.713H8.338c-.276 0-.5-.224-.5-.5s.224-.5.5-.5h10.031c.276 0 .5.224.5.5S18.645 47.713 18.369 47.713zM21.249 47.713h-1.446c-.276 0-.5-.224-.5-.5s.224-.5.5-.5h1.446c.276 0 .5.224.5.5S21.526 47.713 21.249 47.713zM25.304 47.713h-2.546c-.276 0-.5-.224-.5-.5s.224-.5.5-.5h2.546c.276 0 .5.224.5.5S25.58 47.713 25.304 47.713zM25.304 49.578h-9.616c-.276 0-.5-.224-.5-.5s.224-.5.5-.5h9.616c.276 0 .5.224.5.5S25.58 49.578 25.304 49.578zM13.956 49.578h-.58c-.276 0-.5-.224-.5-.5s.224-.5.5-.5h.58c.276 0 .5.224.5.5S14.233 49.578 13.956 49.578zM11.58 49.578h-1.457c-.276 0-.5-.224-.5-.5s.224-.5.5-.5h1.457c.276 0 .5.224.5.5S11.856 49.578 11.58 49.578zM20.715 45.848h-5.027c-.276 0-.5-.224-.5-.5s.224-.5.5-.5h5.027c.276 0 .5.224.5.5S20.992 45.848 20.715 45.848zM20.715 43.983h-1.257c-.276 0-.5-.224-.5-.5s.224-.5.5-.5h1.257c.276 0 .5.224.5.5S20.992 43.983 20.715 43.983zM17.447 51.443h-1.759c-.276 0-.5-.224-.5-.5s.224-.5.5-.5h1.759c.276 0 .5.224.5.5S17.723 51.443 17.447 51.443zM74.394 25.392h-10.03c-.276 0-.5-.224-.5-.5s.224-.5.5-.5h10.03c.276 0 .5.224.5.5S74.671 25.392 74.394 25.392zM77.276 25.392H75.83c-.276 0-.5-.224-.5-.5s.224-.5.5-.5h1.446c.276 0 .5.224.5.5S77.552 25.392 77.276 25.392zM81.33 25.392h-2.546c-.276 0-.5-.224-.5-.5s.224-.5.5-.5h2.546c.276 0 .5.224.5.5S81.606 25.392 81.33 25.392zM81.33 27.257h-9.616c-.276 0-.5-.224-.5-.5s.224-.5.5-.5h9.616c.276 0 .5.224.5.5S81.606 27.257 81.33 27.257zM69.982 27.257h-.58c-.276 0-.5-.224-.5-.5s.224-.5.5-.5h.58c.276 0 .5.224.5.5S70.259 27.257 69.982 27.257zM67.605 27.257h-1.456c-.276 0-.5-.224-.5-.5s.224-.5.5-.5h1.456c.276 0 .5.224.5.5S67.882 27.257 67.605 27.257zM76.741 23.527h-5.027c-.276 0-.5-.224-.5-.5s.224-.5.5-.5h5.027c.276 0 .5.224.5.5S77.018 23.527 76.741 23.527zM76.741 21.662h-1.257c-.276 0-.5-.224-.5-.5s.224-.5.5-.5h1.257c.276 0 .5.224.5.5S77.018 21.662 76.741 21.662zM73.473 29.122h-1.759c-.276 0-.5-.224-.5-.5s.224-.5.5-.5h1.759c.276 0 .5.224.5.5S73.749 29.122 73.473 29.122z"/><path fill="#fdfcef" d="M74.965,48.546c0,0,10.616,0,10.681,0c2.452,0,4.439-1.987,4.439-4.439c0-2.139-1.513-3.924-3.527-4.344c0.023-0.187,0.039-0.377,0.039-0.57c0-2.539-2.058-4.598-4.597-4.598c-1.499,0-2.827,0.721-3.666,1.831c-0.215-2.826-2.739-5.007-5.693-4.646c-2.16,0.264-3.947,1.934-4.344,4.073c-0.127,0.686-0.114,1.352,0.013,1.977c-0.579-0.624-1.403-1.016-2.322-1.016c-1.68,0-3.052,1.308-3.16,2.961c-0.763-0.169-1.593-0.158-2.467,0.17c-1.671,0.627-2.861,2.2-2.93,3.983c-0.099,2.533,1.925,4.617,4.435,4.617c0.191,0,0.861,0,1.015,0h9.218"/><path fill="#472b29" d="M85.645,49.046H74.965c-0.276,0-0.5-0.224-0.5-0.5s0.224-0.5,0.5-0.5h10.681c2.172,0,3.939-1.767,3.939-3.939c0-1.854-1.316-3.476-3.129-3.855c-0.254-0.053-0.425-0.292-0.394-0.55c0.021-0.168,0.035-0.337,0.035-0.51c0-2.259-1.838-4.098-4.098-4.098c-1.292,0-2.483,0.595-3.267,1.632c-0.125,0.167-0.339,0.239-0.54,0.178c-0.199-0.059-0.342-0.234-0.357-0.442c-0.094-1.238-0.7-2.4-1.663-3.19c-0.973-0.798-2.206-1.149-3.471-0.997c-1.947,0.238-3.556,1.747-3.913,3.668c-0.112,0.6-0.108,1.201,0.011,1.786c0.044,0.22-0.062,0.442-0.262,0.544c-0.201,0.102-0.442,0.06-0.595-0.104c-0.512-0.552-1.207-0.856-1.955-0.856c-1.4,0-2.569,1.095-2.661,2.494c-0.01,0.146-0.082,0.28-0.199,0.367c-0.118,0.087-0.267,0.118-0.408,0.088c-0.754-0.167-1.469-0.118-2.183,0.15c-1.499,0.562-2.546,1.982-2.606,3.535c-0.042,1.083,0.347,2.109,1.096,2.889c0.75,0.78,1.758,1.209,2.839,1.209h10.233c0.276,0,0.5,0.224,0.5,0.5s-0.224,0.5-0.5,0.5H61.866c-1.355,0-2.62-0.539-3.56-1.516c-0.939-0.978-1.428-2.263-1.375-3.621c0.076-1.949,1.383-3.73,3.254-4.432c0.721-0.27,1.465-0.363,2.221-0.279c0.362-1.655,1.842-2.884,3.582-2.884c0.603,0,1.194,0.151,1.72,0.431c0.004-0.327,0.036-0.655,0.097-0.983c0.436-2.346,2.399-4.188,4.775-4.478c1.537-0.193,3.039,0.243,4.226,1.216c0.899,0.737,1.543,1.742,1.847,2.851c0.919-0.807,2.095-1.256,3.347-1.256c2.811,0,5.098,2.287,5.098,5.098c0,0.064-0.001,0.128-0.004,0.192c2.047,0.628,3.492,2.547,3.492,4.723C90.584,46.83,88.369,49.046,85.645,49.046z"/><path fill="#fdfcef" d="M72.392,38.767c-1.642-0.108-3.055,1.026-3.157,2.533c-0.013,0.187-0.004,0.371,0.023,0.55c-0.317-0.358-0.786-0.6-1.324-0.636c-0.985-0.065-1.836,0.586-1.959,1.471c-0.179-0.049-0.366-0.082-0.56-0.095c-1.437-0.094-2.674,0.898-2.762,2.216"/><path fill="#472b29" d="M62.654,45.057c-0.006,0-0.012,0-0.017,0c-0.138-0.009-0.242-0.128-0.233-0.266c0.098-1.453,1.447-2.549,3.028-2.449c0.116,0.008,0.234,0.022,0.353,0.045c0.26-0.878,1.159-1.485,2.166-1.421c0.377,0.025,0.73,0.139,1.035,0.33c0-0.004,0-0.008,0-0.012c0.111-1.641,1.648-2.873,3.423-2.765c0.138,0.009,0.242,0.128,0.233,0.266c-0.009,0.138-0.131,0.243-0.266,0.233c-1.506-0.105-2.799,0.934-2.891,2.3c-0.011,0.166-0.004,0.333,0.021,0.496c0.017,0.109-0.041,0.217-0.141,0.264c-0.098,0.047-0.219,0.023-0.293-0.061c-0.289-0.326-0.699-0.522-1.153-0.552c-0.844-0.056-1.589,0.496-1.695,1.256c-0.01,0.071-0.05,0.134-0.11,0.174c-0.06,0.04-0.134,0.051-0.203,0.033c-0.173-0.046-0.345-0.076-0.511-0.086c-1.293-0.085-2.417,0.805-2.497,1.983C62.894,44.956,62.785,45.057,62.654,45.057z"/><path fill="#fdfcef" d="M87.443,40.283c-1.543-0.727-3.327-0.213-3.985,1.15c-0.082,0.169-0.142,0.344-0.182,0.521"/><path fill="#472b29" d="M83.275,42.204c-0.018,0-0.037-0.002-0.055-0.006c-0.135-0.03-0.219-0.164-0.188-0.299c0.044-0.197,0.112-0.39,0.201-0.574c0.716-1.484,2.652-2.054,4.317-1.268c0.125,0.059,0.179,0.208,0.12,0.333c-0.059,0.126-0.209,0.177-0.333,0.12c-1.417-0.667-3.056-0.204-3.654,1.033c-0.072,0.15-0.127,0.307-0.164,0.467C83.493,42.125,83.39,42.204,83.275,42.204z"/><path fill="#00b3f1" d="M65.26,69.974H39.538c-3.766,0-6.847-3.081-6.847-6.847V37.405c0-3.766,3.081-6.847,6.847-6.847H65.26c3.766,0,6.847,3.081,6.847,6.847v25.722C72.108,66.893,69.026,69.974,65.26,69.974z"/><path fill="#472b29" d="M65.26,70.675H39.538c-4.162,0-7.547-3.386-7.547-7.547V37.405c0-4.162,3.386-7.547,7.547-7.547H65.26c4.162,0,7.547,3.386,7.547,7.547v25.722C72.808,67.289,69.422,70.675,65.26,70.675z M39.538,31.258c-3.39,0-6.147,2.757-6.147,6.147v25.722c0,3.39,2.757,6.147,6.147,6.147H65.26c3.39,0,6.147-2.757,6.147-6.147V37.405c0-3.39-2.757-6.147-6.147-6.147H39.538z"/><path fill="#fdfcee" d="M63.743,67.159H41.055c-3.052,0-5.549-2.497-5.549-5.549V38.922c0-3.052,2.497-5.549,5.549-5.549h22.688c3.052,0,5.549,2.497,5.549,5.549V61.61C69.292,64.662,66.795,67.159,63.743,67.159z"/><path fill="#472b29" d="M64.158,67.509H40.641c-3.024,0-5.484-2.46-5.484-5.484V38.508c0-3.024,2.46-5.484,5.484-5.484h22.395c0.193,0,0.35,0.157,0.35,0.35s-0.157,0.35-0.35,0.35H40.641c-2.638,0-4.784,2.146-4.784,4.784v23.517c0,2.638,2.146,4.784,4.784,4.784h23.517c2.638,0,4.784-2.146,4.784-4.784v-13.01c0-0.193,0.157-0.35,0.35-0.35s0.35,0.157,0.35,0.35v13.01C69.642,65.049,67.182,67.509,64.158,67.509z"/><path fill="#472b29" d="M69.292 47.488c-.193 0-.35-.157-.35-.35v-2.503c0-.193.157-.35.35-.35s.35.157.35.35v2.503C69.642 47.331 69.485 47.488 69.292 47.488zM69.292 43.734c-.193 0-.35-.157-.35-.35v-1.251c0-.193.157-.35.35-.35s.35.157.35.35v1.251C69.642 43.577 69.485 43.734 69.292 43.734z"/><path fill="#00b3f1" d="M57.943,43.35c-2.376-0.079-3.985,1.256-4.824,4.001c0.433-0.179,0.854-0.27,1.267-0.27c0.866,0,1.252,0.485,1.148,1.462c-0.052,0.592-0.433,1.45-1.148,2.579c-0.715,1.128-1.252,1.693-1.609,1.693c-0.461,0-0.882-0.874-1.267-2.614c-0.127-0.513-0.358-1.82-0.687-3.926c-0.31-1.947-1.124-2.861-2.452-2.73c-0.56,0.048-1.403,0.56-2.527,1.534c-0.819,0.743-1.649,1.49-2.491,2.233l0.803,1.037c0.767-0.54,1.216-0.807,1.343-0.807c0.588,0,1.136,0.922,1.649,2.769c0.457,1.693,0.922,3.385,1.379,5.078c0.687,1.848,1.53,2.769,2.527,2.769c1.609,0,3.576-1.514,5.9-4.538c2.245-2.897,3.405-5.181,3.485-6.846C60.537,44.542,59.707,43.397,57.943,43.35z"/><path fill="#472b29" d="M51.053,58.509c-1.155,0-2.115-1.009-2.855-2.998l-1.388-5.109c-0.663-2.389-1.208-2.51-1.311-2.51c0.011,0.005-0.211,0.087-1.142,0.743c-0.153,0.106-0.364,0.076-0.479-0.072l-0.803-1.037c-0.113-0.146-0.093-0.355,0.045-0.477c0.841-0.742,1.67-1.488,2.488-2.229c1.201-1.04,2.092-1.569,2.733-1.623c1.053-0.105,2.399,0.336,2.827,3.023c0.403,2.575,0.593,3.54,0.681,3.897c0.506,2.285,0.924,2.348,0.928,2.348c0.014,0,0.361-0.027,1.314-1.53c0.68-1.074,1.048-1.889,1.095-2.422c0.044-0.418-0.009-0.71-0.157-0.875c-0.272-0.303-1.05-0.263-1.776,0.037c-0.125,0.051-0.269,0.026-0.369-0.065c-0.1-0.091-0.139-0.231-0.1-0.361c0.887-2.904,2.624-4.32,5.169-4.249c0.87,0.024,1.554,0.297,2.034,0.812c0.591,0.635,0.86,1.637,0.801,2.979c-0.084,1.761-1.248,4.065-3.558,7.045C54.812,56.979,52.792,58.509,51.053,58.509z M45.498,47.192c0.793,0,1.405,0.933,1.986,3.025l1.379,5.081c0.618,1.656,1.357,2.511,2.189,2.511c1.486,0,3.377-1.48,5.623-4.401c2.189-2.824,3.336-5.061,3.413-6.649c0.051-1.146-0.156-1.977-0.614-2.469c-0.352-0.378-0.856-0.57-1.541-0.589c-0.001,0-0.001,0-0.002,0c-2.045-0.073-3.425,0.951-4.256,3.11c0.769-0.168,1.493-0.064,1.875,0.36c0.287,0.318,0.399,0.793,0.333,1.41c-0.056,0.648-0.449,1.543-1.2,2.729c-0.825,1.3-1.394,1.855-1.905,1.855c-0.679,0-1.161-0.864-1.609-2.889c-0.131-0.53-0.365-1.861-0.691-3.947c-0.415-2.602-1.666-2.473-2.071-2.436c-0.336,0.028-1.008,0.303-2.333,1.45c-0.735,0.667-1.483,1.341-2.243,2.013l0.398,0.515C45.217,47.192,45.378,47.192,45.498,47.192z"/><path fill="#fdfcef" d="M42.126,72.487c1.71,0,3.194,0,3.215,0c1.916,0,3.469-1.52,3.469-3.396c0-1.636-1.182-3.001-2.756-3.323c0.018-0.143,0.031-0.288,0.031-0.436c0-1.942-1.609-3.517-3.593-3.517c-1.172,0-2.209,0.551-2.865,1.401c-0.168-2.162-2.141-3.83-4.45-3.554c-1.688,0.202-3.084,1.479-3.395,3.116c-0.1,0.525-0.089,1.034,0.01,1.512c-0.453-0.477-1.097-0.777-1.814-0.777c-1.313,0-2.385,1.001-2.47,2.265c-0.596-0.129-1.245-0.121-1.928,0.13c-1.306,0.48-2.236,1.683-2.29,3.047c-0.077,1.937,1.504,3.532,3.467,3.532c0.149,0,0.673,0,0.794,0h7.204 M36.245,72.487h0.327"/><path fill="#472b29" d="M45.341,72.987h-3.215c-0.276,0-0.5-0.224-0.5-0.5s0.224-0.5,0.5-0.5h3.215c1.637,0,2.969-1.299,2.969-2.896c0-1.363-0.991-2.554-2.356-2.833c-0.256-0.052-0.429-0.293-0.396-0.552c0.016-0.123,0.026-0.247,0.026-0.374c0-1.664-1.388-3.017-3.093-3.017c-0.977,0-1.877,0.44-2.469,1.207c-0.126,0.164-0.34,0.233-0.539,0.173c-0.198-0.059-0.339-0.234-0.355-0.44c-0.071-0.913-0.507-1.741-1.227-2.332c-0.743-0.609-1.689-0.883-2.665-0.764c-1.475,0.177-2.694,1.292-2.963,2.712c-0.084,0.443-0.082,0.886,0.008,1.318c0.045,0.219-0.06,0.441-0.258,0.545c-0.198,0.102-0.44,0.063-0.594-0.1c-0.38-0.401-0.896-0.622-1.452-0.622c-1.038,0-1.903,0.79-1.971,1.799c-0.01,0.145-0.082,0.278-0.198,0.366c-0.116,0.088-0.265,0.119-0.406,0.089c-0.572-0.125-1.112-0.087-1.65,0.111c-1.128,0.415-1.917,1.459-1.963,2.598c-0.031,0.782,0.253,1.526,0.8,2.096c0.567,0.591,1.337,0.916,2.167,0.916h7.998c0.276,0,0.5,0.224,0.5,0.5s-0.224,0.5-0.5,0.5h-7.998c-1.088,0-2.141-0.446-2.888-1.223c-0.737-0.767-1.12-1.772-1.078-2.829c0.062-1.539,1.113-2.943,2.617-3.496c0.549-0.201,1.118-0.276,1.688-0.228c0.332-1.268,1.507-2.198,2.882-2.198c0.431,0,0.854,0.094,1.241,0.269c0.011-0.199,0.035-0.398,0.073-0.597c0.35-1.844,1.924-3.291,3.827-3.519c1.249-0.149,2.462,0.2,3.418,0.984c0.668,0.548,1.147,1.255,1.399,2.047c0.717-0.568,1.61-0.882,2.557-0.882c2.257,0,4.093,1.802,4.093,4.017c0,0.02,0,0.04,0,0.059c1.604,0.52,2.727,2.012,2.727,3.7C49.31,71.239,47.53,72.987,45.341,72.987z M36.571,72.987h-0.327c-0.276,0-0.5-0.224-0.5-0.5s0.224-0.5,0.5-0.5h0.327c0.276,0,0.5,0.224,0.5,0.5S36.848,72.987,36.571,72.987z"/><path fill="#472b29" d="M43.79 67.695c-.018 0-.036-.002-.055-.006-.135-.03-.219-.164-.189-.299.034-.152.086-.3.156-.44.555-1.122 2.083-1.538 3.41-.925.125.058.18.207.122.332-.059.125-.207.179-.332.122-1.081-.501-2.315-.189-2.752.692-.051.104-.09.214-.116.328C44.008 67.615 43.905 67.695 43.79 67.695zM39.106 72.987h-1.005c-.276 0-.5-.224-.5-.5s.224-.5.5-.5h1.005c.276 0 .5.224.5.5S39.382 72.987 39.106 72.987z"/></svg>